<mxfile host="app.diagrams.net" modified="2020-05-25T01:25:39.577Z" agent="5.0 (Macintosh; Intel Mac OS X 10_12_6) AppleWebKit/537.36 (KHTML, like Gecko) Chrome/81.0.4044.138 Safari/537.36" etag="wdxHSyqqvCcM7aSVCRQI" version="13.0.8" type="github">
  <diagram name="Page-1" id="b520641d-4fe3-3701-9064-5fc419738815">
    <mxGraphModel dx="946" dy="597" grid="1" gridSize="10" guides="1" tooltips="1" connect="1" arrows="1" fold="1" page="1" pageScale="1" pageWidth="1100" pageHeight="850" background="#ffffff" math="0" shadow="0">
      <root>
        <mxCell id="0" />
        <mxCell id="1" parent="0" />
        <mxCell id="21ea969265ad0168-6" value="Dashboard" style="swimlane;html=1;fontStyle=0;childLayout=stackLayout;horizontal=1;startSize=26;fillColor=#e0e0e0;horizontalStack=0;resizeParent=1;resizeLast=0;collapsible=1;marginBottom=0;swimlaneFillColor=#ffffff;align=center;rounded=1;shadow=0;comic=0;labelBackgroundColor=none;strokeWidth=1;fontFamily=Verdana;fontSize=12" parent="1" vertex="1">
          <mxGeometry x="160" y="74" width="160" height="80" as="geometry" />
        </mxCell>
        <mxCell id="21ea969265ad0168-8" value="idle" style="text;html=1;strokeColor=none;fillColor=none;spacingLeft=4;spacingRight=4;whiteSpace=wrap;overflow=hidden;rotatable=0;points=[[0,0.5],[1,0.5]];portConstraint=eastwest;" parent="21ea969265ad0168-6" vertex="1">
          <mxGeometry y="26" width="160" height="54" as="geometry" />
        </mxCell>
        <mxCell id="21ea969265ad0168-36" style="edgeStyle=orthogonalEdgeStyle;html=1;labelBackgroundColor=none;startFill=0;startSize=8;endFill=1;endSize=8;fontFamily=Verdana;fontSize=12;entryX=0;entryY=0.5;entryDx=0;entryDy=0;" parent="1" target="BLEFrle1ULVc5vWn8EwS-2" edge="1">
          <mxGeometry relative="1" as="geometry">
            <mxPoint x="440" y="120" as="targetPoint" />
            <Array as="points">
              <mxPoint x="320" y="122" />
              <mxPoint x="450" y="122" />
            </Array>
            <mxPoint x="320" y="115" as="sourcePoint" />
          </mxGeometry>
        </mxCell>
        <mxCell id="rdV9_6l6kC6E4xn4P61S-1" value="goes to employees&lt;br&gt;page" style="text;html=1;strokeColor=none;fillColor=none;align=center;verticalAlign=middle;whiteSpace=wrap;rounded=0;" parent="1" vertex="1">
          <mxGeometry x="360" y="80" width="40" height="20" as="geometry" />
        </mxCell>
        <mxCell id="rdV9_6l6kC6E4xn4P61S-27" value="" style="ellipse;html=1;shape=startState;fillColor=#000000;strokeColor=#ff0000;" parent="1" vertex="1">
          <mxGeometry x="70" y="97" width="30" height="30" as="geometry" />
        </mxCell>
        <mxCell id="rdV9_6l6kC6E4xn4P61S-28" value="" style="edgeStyle=orthogonalEdgeStyle;html=1;verticalAlign=bottom;endArrow=open;endSize=8;strokeColor=#ff0000;" parent="1" source="rdV9_6l6kC6E4xn4P61S-27" edge="1">
          <mxGeometry relative="1" as="geometry">
            <mxPoint x="160" y="112" as="targetPoint" />
          </mxGeometry>
        </mxCell>
        <mxCell id="BLEFrle1ULVc5vWn8EwS-7" value="" style="endArrow=classic;html=1;" parent="1" edge="1">
          <mxGeometry width="50" height="50" relative="1" as="geometry">
            <mxPoint x="735.5" y="150" as="sourcePoint" />
            <mxPoint x="735" y="230" as="targetPoint" />
          </mxGeometry>
        </mxCell>
        <mxCell id="BLEFrle1ULVc5vWn8EwS-5" value="Employee Form filling" style="swimlane;html=1;fontStyle=0;childLayout=stackLayout;horizontal=1;startSize=26;fillColor=#e0e0e0;horizontalStack=0;resizeParent=1;resizeLast=0;collapsible=1;marginBottom=0;swimlaneFillColor=#ffffff;align=center;rounded=1;shadow=0;comic=0;labelBackgroundColor=none;strokeWidth=1;fontFamily=Verdana;fontSize=12" parent="1" vertex="1">
          <mxGeometry x="650" y="230" width="160" height="76" as="geometry" />
        </mxCell>
        <mxCell id="BLEFrle1ULVc5vWn8EwS-6" value="entry:read data from form&lt;br&gt;do: check for validity&lt;br&gt;exit:save employee data" style="text;html=1;strokeColor=none;fillColor=none;spacingLeft=4;spacingRight=4;whiteSpace=wrap;overflow=hidden;rotatable=0;points=[[0,0.5],[1,0.5]];portConstraint=eastwest;" parent="BLEFrle1ULVc5vWn8EwS-5" vertex="1">
          <mxGeometry y="26" width="160" height="44" as="geometry" />
        </mxCell>
        <mxCell id="BLEFrle1ULVc5vWn8EwS-9" value="" style="endArrow=classic;html=1;" parent="1" edge="1">
          <mxGeometry width="50" height="50" relative="1" as="geometry">
            <mxPoint x="720" y="310" as="sourcePoint" />
            <mxPoint x="719.5" y="390" as="targetPoint" />
          </mxGeometry>
        </mxCell>
        <mxCell id="BLEFrle1ULVc5vWn8EwS-12" value="save [EmployeeCreatedSuccessfully]" style="text;html=1;strokeColor=none;fillColor=none;align=center;verticalAlign=middle;whiteSpace=wrap;rounded=0;" parent="1" vertex="1">
          <mxGeometry x="790" y="330" width="40" height="20" as="geometry" />
        </mxCell>
        <mxCell id="BLEFrle1ULVc5vWn8EwS-13" value="fill form" style="text;html=1;strokeColor=none;fillColor=none;align=center;verticalAlign=middle;whiteSpace=wrap;rounded=0;" parent="1" vertex="1">
          <mxGeometry x="735" y="170" width="40" height="20" as="geometry" />
        </mxCell>
        <mxCell id="BLEFrle1ULVc5vWn8EwS-14" value="" style="endArrow=classic;html=1;" parent="1" edge="1">
          <mxGeometry width="50" height="50" relative="1" as="geometry">
            <mxPoint x="630" y="111.5" as="sourcePoint" />
            <mxPoint x="710" y="111.5" as="targetPoint" />
          </mxGeometry>
        </mxCell>
        <mxCell id="BLEFrle1ULVc5vWn8EwS-16" value="add employee" style="text;html=1;strokeColor=none;fillColor=none;align=center;verticalAlign=middle;whiteSpace=wrap;rounded=0;" parent="1" vertex="1">
          <mxGeometry x="650" y="77" width="40" height="20" as="geometry" />
        </mxCell>
        <mxCell id="BLEFrle1ULVc5vWn8EwS-17" value="" style="ellipse;html=1;shape=endState;fillColor=#000000;strokeColor=#ff0000;" parent="1" vertex="1">
          <mxGeometry x="705" y="530" width="30" height="30" as="geometry" />
        </mxCell>
        <mxCell id="BLEFrle1ULVc5vWn8EwS-18" value="Employee Added" style="swimlane;html=1;fontStyle=0;childLayout=stackLayout;horizontal=1;startSize=26;fillColor=#e0e0e0;horizontalStack=0;resizeParent=1;resizeLast=0;collapsible=1;marginBottom=0;swimlaneFillColor=#ffffff;align=center;rounded=1;shadow=0;comic=0;labelBackgroundColor=none;strokeWidth=1;fontFamily=Verdana;fontSize=12" parent="1" vertex="1">
          <mxGeometry x="640" y="387" width="220" height="76" as="geometry" />
        </mxCell>
        <mxCell id="2cfO8YTzdwCPnUAsAqQh-7" value="&lt;br&gt;do: display&lt;br&gt;New employee&amp;nbsp;" style="text;html=1;strokeColor=none;fillColor=none;align=center;verticalAlign=middle;whiteSpace=wrap;rounded=0;" parent="BLEFrle1ULVc5vWn8EwS-18" vertex="1">
          <mxGeometry y="26" width="220" height="20" as="geometry" />
        </mxCell>
        <mxCell id="BLEFrle1ULVc5vWn8EwS-20" value="" style="endArrow=classic;html=1;" parent="1" edge="1">
          <mxGeometry width="50" height="50" relative="1" as="geometry">
            <mxPoint x="720" y="460" as="sourcePoint" />
            <mxPoint x="720" y="530" as="targetPoint" />
          </mxGeometry>
        </mxCell>
        <mxCell id="BLEFrle1ULVc5vWn8EwS-21" value="" style="endArrow=classic;html=1;exitX=0;exitY=0.25;exitDx=0;exitDy=0;" parent="1" source="BLEFrle1ULVc5vWn8EwS-5" edge="1">
          <mxGeometry width="50" height="50" relative="1" as="geometry">
            <mxPoint x="680" y="260" as="sourcePoint" />
            <mxPoint x="470" y="150" as="targetPoint" />
          </mxGeometry>
        </mxCell>
        <mxCell id="BLEFrle1ULVc5vWn8EwS-22" value="cancel" style="text;html=1;strokeColor=none;fillColor=none;align=center;verticalAlign=middle;whiteSpace=wrap;rounded=0;" parent="1" vertex="1">
          <mxGeometry x="530" y="210" width="40" height="20" as="geometry" />
        </mxCell>
        <mxCell id="2cfO8YTzdwCPnUAsAqQh-3" value="" style="edgeStyle=segmentEdgeStyle;endArrow=classic;html=1;entryX=0.863;entryY=-0.039;entryDx=0;entryDy=0;entryPerimeter=0;" parent="1" target="BLEFrle1ULVc5vWn8EwS-5" edge="1">
          <mxGeometry width="50" height="50" relative="1" as="geometry">
            <mxPoint x="810" y="260" as="sourcePoint" />
            <mxPoint x="790" y="200" as="targetPoint" />
            <Array as="points">
              <mxPoint x="860" y="260" />
              <mxPoint x="860" y="200" />
              <mxPoint x="790" y="200" />
              <mxPoint x="790" y="227" />
            </Array>
          </mxGeometry>
        </mxCell>
        <mxCell id="2cfO8YTzdwCPnUAsAqQh-6" value="[IncorrectData]" style="text;html=1;strokeColor=none;fillColor=none;align=center;verticalAlign=middle;whiteSpace=wrap;rounded=0;" parent="1" vertex="1">
          <mxGeometry x="830" y="180" width="40" height="20" as="geometry" />
        </mxCell>
        <mxCell id="BLEFrle1ULVc5vWn8EwS-3" value="New Employee page opened" style="swimlane;html=1;fontStyle=0;childLayout=stackLayout;horizontal=1;startSize=26;fillColor=#e0e0e0;horizontalStack=0;resizeParent=1;resizeLast=0;collapsible=1;marginBottom=0;swimlaneFillColor=#ffffff;align=center;rounded=1;shadow=0;comic=0;labelBackgroundColor=none;strokeWidth=1;fontFamily=Verdana;fontSize=12" parent="1" vertex="1">
          <mxGeometry x="710" y="74" width="200" height="76" as="geometry" />
        </mxCell>
        <mxCell id="BLEFrle1ULVc5vWn8EwS-4" value="do:display page for new employee" style="text;html=1;strokeColor=none;fillColor=none;spacingLeft=4;spacingRight=4;whiteSpace=wrap;overflow=hidden;rotatable=0;points=[[0,0.5],[1,0.5]];portConstraint=eastwest;" parent="BLEFrle1ULVc5vWn8EwS-3" vertex="1">
          <mxGeometry y="26" width="200" height="44" as="geometry" />
        </mxCell>
        <mxCell id="BLEFrle1ULVc5vWn8EwS-1" value="Employees page opened" style="swimlane;html=1;fontStyle=0;childLayout=stackLayout;horizontal=1;startSize=26;fillColor=#e0e0e0;horizontalStack=0;resizeParent=1;resizeLast=0;collapsible=1;marginBottom=0;swimlaneFillColor=#ffffff;align=center;rounded=1;shadow=0;comic=0;labelBackgroundColor=none;strokeWidth=1;fontFamily=Verdana;fontSize=12" parent="1" vertex="1">
          <mxGeometry x="450" y="74" width="180" height="76" as="geometry" />
        </mxCell>
        <mxCell id="BLEFrle1ULVc5vWn8EwS-2" value="do:display employees pages" style="text;html=1;strokeColor=none;fillColor=none;spacingLeft=4;spacingRight=4;whiteSpace=wrap;overflow=hidden;rotatable=0;points=[[0,0.5],[1,0.5]];portConstraint=eastwest;" parent="BLEFrle1ULVc5vWn8EwS-1" vertex="1">
          <mxGeometry y="26" width="180" height="44" as="geometry" />
        </mxCell>
      </root>
    </mxGraphModel>
  </diagram>
</mxfile>
